<?xml version="1.0" encoding="utf-8"?>
<!-- Generator: Adobe Illustrator 18.1.1, SVG Export Plug-In . SVG Version: 6.00 Build 0)  -->
<svg version="1.1" id="Your_Icon" xmlns="http://www.w3.org/2000/svg" xmlns:xlink="http://www.w3.org/1999/xlink" x="0px" y="0px"
	 viewBox="-21 23 100 100" enable-background="new -21 23 100 100" xml:space="preserve">
<path fill="#FFFFFF" d="M25,119c2.6,0,5.1-1,7.1-2.9c3.9-3.9,3.9-10.2,0-14.1L3.1,73l28.9-28.9c3.9-3.9,3.9-10.2,0-14.1
	c-3.9-3.9-10.2-3.9-14.1,0l-36,36c-1.9,1.9-2.9,4.4-2.9,7.1c0,2.7,1.1,5.2,2.9,7.1l36,36C19.9,118,22.4,119,25,119z"/>
<path fill="#FFFFFF" d="M-1.1,83h70.2c5.5,0,9.9-4.5,9.9-10c0-5.5-4.4-10-9.9-10H-1.1c-5.5,0-9.9,4.5-9.9,10C-11,78.5-6.6,83-1.1,83
	z"/>
</svg>
