<?xml version="1.0" encoding="utf-8"?>
<!-- Generator: Adobe Illustrator 18.1.1, SVG Export Plug-In . SVG Version: 6.00 Build 0)  -->
<svg version="1.1" id="Layer_1" xmlns="http://www.w3.org/2000/svg" xmlns:xlink="http://www.w3.org/1999/xlink" x="0px" y="0px"
	 viewBox="0 148.7 360 134.5" enable-background="new 0 148.7 360 134.5" xml:space="preserve">
<g>
	<path fill="#FFFFFF" d="M136.9,157.9v40.2h16.3V209h-29.6v-51.1H136.9z"/>
	<path fill="#FFFFFF" d="M181.8,157.9l12.4,51.1h-14.1l-1.3-9h-10.6l-1.3,9H153l12.2-51.1C165.2,157.9,181.8,157.9,181.8,157.9z
		 M173.3,168.3l-3.6,21.7h7.5l-3.6-21.7C173.5,168.3,173.3,168.3,173.3,168.3z"/>
	<path fill="#FFFFFF" d="M189.4,169.2v-11.3h33.2v11.3h-10v39.7h-13.3v-39.7H189.4z"/>
	<path fill="#FFFFFF" d="M238.4,157.9V209h-13.3v-51.1H238.4z"/>
	<path fill="#FFFFFF" d="M259.1,157.9l8.6,31.5h0.1v-31.5h12.4V209h-14.6l-8.9-31.6h-0.1V209h-12.4v-51.1H259.1z"/>
	<path fill="#FFFFFF" d="M286,171.2c0.6-3.3,1.6-6.2,3.1-8.3c1.4-2.1,3.3-3.6,5.6-4.6s5.2-1.5,8.6-1.5c3.4,0,6.3,0.5,8.6,1.5
		c2.3,1,4.2,2.5,5.6,4.6c1.4,2.1,2.4,4.8,3.1,8.3c0.6,3.3,0.9,7.5,0.9,12.2c0,4.7-0.3,8.9-0.9,12.2s-1.6,6.2-3.1,8.3
		c-1.4,2.1-3.3,3.6-5.6,4.5c-2.3,0.9-5.2,1.3-8.6,1.3c-3.4,0-6.3-0.5-8.6-1.3c-2.3-0.9-4.2-2.4-5.6-4.5c-1.4-2.1-2.4-4.8-3.1-8.3
		c-0.6-3.3-0.9-7.5-0.9-12.2C285.1,178.7,285.4,174.7,286,171.2z M298.9,192c0.1,2.2,0.3,4,0.6,5.4c0.3,1.3,0.8,2.2,1.3,2.8
		c0.6,0.5,1.4,0.8,2.4,0.8c1,0,1.8-0.3,2.4-0.8s1-1.4,1.3-2.8c0.3-1.3,0.5-3.1,0.6-5.4c0.1-2.2,0.1-5.1,0.1-8.6c0-3.4,0-6.3-0.1-8.6
		c-0.1-2.2-0.3-4-0.6-5.4c-0.3-1.3-0.8-2.2-1.3-2.8c-0.6-0.5-1.4-0.8-2.4-0.8c-1,0-1.8,0.3-2.4,0.8c-0.6,0.5-1,1.4-1.3,2.8
		c-0.3,1.3-0.5,3.1-0.6,5.4c-0.1,2.2-0.1,5.1-0.1,8.6C298.8,186.9,298.9,189.7,298.9,192z"/>
	<path fill="#FFFFFF" d="M346.2,171.4c0-1.5-0.3-2.8-0.9-3.9c-0.6-1.1-1.6-1.6-2.8-1.6c-1.4,0-2.5,0.5-3.1,1.4c-0.7,0.9-1,2-1,3.1
		c0,1.7,0.5,3,1.6,3.9c1.1,1,2.4,1.8,4,2.5c1.6,0.7,3.3,1.4,5.2,2.2c1.8,0.7,3.6,1.7,5.2,2.9c1.6,1.2,2.9,2.7,4,4.6s1.6,4.4,1.6,7.6
		c0,5.4-1.5,9.4-4.6,11.8s-7.6,3.7-13.4,3.7c-2.7,0-5.2-0.2-7.4-0.7c-2.1-0.5-3.9-1.2-5.3-2.3c-1.4-1.1-2.5-2.6-3.3-4.4
		c-0.8-1.8-1.1-4-1.1-6.8v-1.8h12.9v1.2c0,2.2,0.4,3.7,1.2,4.6c0.8,0.9,1.8,1.3,3.1,1.3c1.4,0,2.4-0.5,3.2-1.4
		c0.7-0.9,1.1-2.1,1.1-3.5c0-1.7-0.5-3-1.5-3.9c-1-1-2.3-1.8-3.8-2.5c-1.5-0.7-3.2-1.4-5-2.1c-1.8-0.7-3.5-1.6-5-2.8
		c-1.5-1.1-2.8-2.6-3.8-4.5c-1-1.8-1.5-4.3-1.5-7.3c0-5.2,1.4-9.2,4.1-11.9c2.7-2.7,7-4,12.6-4c5.8,0,10,1.2,12.6,3.7
		c2.6,2.5,3.9,6.5,3.9,12h-12.4v-1.1H346.2z"/>
</g>
<g>
	<path fill="#FFFFFF" d="M125,226.4h8.7v42.9H125V226.4z"/>
	<path fill="#FFFFFF" d="M160.4,255.7h0.1v-29.3h7.9v42.9h-9.9l-10.6-29.9h-0.1v29.9H140v-42.9h10L160.4,255.7z"/>
	<path fill="#FFFFFF" d="M205.7,226.4l11.3,42.9h-9l-2-9.1h-11.4l-2,9.1h-9l11.4-42.9H205.7z M204.5,253.1l-4.1-19.3h-0.1l-4.1,19.3
		H204.5z"/>
	<path fill="#FFFFFF" d="M237.2,234.1c-0.7-1.4-2.1-2.1-4-2.1c-1.1,0-2,0.3-2.6,0.9c-0.7,0.6-1.2,1.5-1.6,2.8
		c-0.4,1.3-0.7,3-0.8,5.1c-0.2,2.1-0.2,4.6-0.2,7.7c0,3.2,0.1,5.8,0.3,7.9c0.2,2,0.6,3.5,1,4.6c0.5,1.1,1,1.8,1.7,2.2
		c0.7,0.4,1.5,0.6,2.4,0.6c0.8,0,1.5-0.1,2.1-0.4c0.7-0.3,1.2-0.8,1.7-1.5c0.5-0.8,0.9-1.9,1.1-3.3c0.3-1.4,0.4-3.3,0.4-5.6h8.7
		c0,2.3-0.2,4.5-0.5,6.6c-0.4,2.1-1,3.9-2,5.4c-1,1.5-2.3,2.8-4.1,3.6c-1.8,0.8-4.1,1.3-7,1.3c-3.2,0-5.8-0.5-7.8-1.5
		c-1.9-1-3.4-2.5-4.4-4.5c-1-1.9-1.7-4.3-2-7.1s-0.4-5.7-0.4-9c0-3.2,0.1-6.3,0.4-9c0.3-2.7,1-5,2-7.1c1-1.9,2.5-3.5,4.4-4.5
		c1.9-1.1,4.5-1.6,7.8-1.6c3.1,0,5.5,0.5,7.3,1.5c1.8,1,3.1,2.3,4,3.8c0.9,1.5,1.4,3.2,1.6,4.9c0.2,1.8,0.3,3.4,0.3,5h-8.7
		C238.3,237.7,238,235.5,237.2,234.1z"/>
	<path fill="#FFFFFF" d="M277.3,233.4h-9.4v35.7h-8.7v-35.7h-9.4v-7.1h27.4V233.4z"/>
	<path fill="#FFFFFF" d="M281.4,226.4h8.7v42.9h-8.7V226.4z"/>
	<path fill="#FFFFFF" d="M296,238.8c0.3-2.7,1-5,2-7.1c1-1.9,2.5-3.5,4.4-4.5c1.9-1.1,4.5-1.6,7.8-1.6s5.8,0.5,7.8,1.6
		c1.9,1.1,3.4,2.6,4.4,4.5c1,1.9,1.7,4.3,2,7.1c0.3,2.7,0.4,5.7,0.4,9c0,3.3-0.1,6.3-0.4,9c-0.3,2.7-1,5-2,7.1
		c-1,1.9-2.5,3.4-4.4,4.5c-1.9,1-4.5,1.5-7.8,1.5s-5.8-0.5-7.8-1.5c-1.9-1-3.4-2.5-4.4-4.5c-1-1.9-1.7-4.3-2-7.1
		c-0.3-2.7-0.4-5.7-0.4-9S295.7,241.5,296,238.8z M304.4,255.1c0.1,2,0.4,3.6,0.8,4.9c0.4,1.2,1,2.2,1.8,2.7
		c0.8,0.6,1.8,0.9,3.1,0.9c1.3,0,2.3-0.3,3.1-0.9c0.8-0.6,1.4-1.5,1.8-2.7c0.4-1.2,0.7-2.9,0.8-4.9s0.2-4.4,0.2-7.4
		c0-2.9-0.1-5.3-0.2-7.4c-0.1-2-0.4-3.6-0.8-4.9c-0.4-1.3-1-2.2-1.8-2.8s-1.8-0.9-3.1-0.9c-1.3,0-2.3,0.3-3.1,0.9s-1.4,1.5-1.8,2.8
		s-0.7,2.9-0.8,4.9c-0.1,2-0.2,4.4-0.2,7.4C304.2,250.7,304.2,253.1,304.4,255.1z"/>
	<path fill="#FFFFFF" d="M350.2,255.7h0.1v-29.3h7.9v42.9h-9.9l-10.5-30.1h-0.1v29.9h-7.9v-42.8h10L350.2,255.7z"/>
</g>
<rect x="124.1" y="215.7" fill="#FFFFFF" width="236.2" height="2.5"/>
<g>
	<path fill="#FFFFFF" d="M55.7,268.2c0.1-0.2-0.1-0.5-0.1-0.5c-0.5-0.1-1.5-0.6-1.5-0.6c-0.7-0.2-0.2-1.5-0.2-1.5
		c0.2-0.1,0.1-0.6,0.1-0.6c-0.7-0.2-0.7-1-0.7-1c-0.5-0.6,0.3-1,0.5-1.3c0.2-0.2,0.5-0.5,0.5-0.5c-0.3-0.5,0-1.1,0-1.1v-1.3l0.4-7.2
		c-0.3-0.5-0.1-1.6-0.1-1.6c-0.3-1.4,0.7-2.8,0.7-2.8c0-0.4-0.9-4-0.9-4c-0.5-1-0.4-1.8-0.4-1.8l0.1-2.2l-0.1-1.6
		c-0.1-0.4-0.3,0-0.3,0c0,0.1-0.3,1.1-0.3,1.1c0,0.4-0.6,1.9-0.6,1.9c-0.2,1.1-1.5,5.1-1.5,5.1c-0.1,1-0.7,3-0.7,3
		c0,2.4-1.1,3.4-1.1,3.4c-0.2,1-0.7,2.3-0.7,2.3c-0.3,2.2-1.2,4.5-1.2,4.5c-0.5,1.5-0.9,1.7-0.9,1.7c-0.7,0.8-0.6,1.5-0.6,1.5
		c0.4,1.1-0.3,1.8-0.3,1.8c0.4,0.6-0.3,1.2-0.3,1.2c0.4,0.8-0.4,1.2-0.4,1.2c-0.3,0.2-0.5,0.4-0.7,0.5c2.8,1.3,5.8,1.9,9.1,1.6
		c0.9-0.1,1.7-0.2,2.5-0.4C55.6,268.6,55.7,268.2,55.7,268.2z"/>
	<path fill="#FFFFFF" d="M44.2,232.8l1.6-2c0,0,0.2-0.1,0.2,0.4c0,0,0.6-0.1,1,0.7c0,0,0-0.7,0.4-1c0,0,0.1-0.2-0.1-0.3
		c0,0,0-0.6,0-1c0.1-0.4,0-0.6,0-0.6s0.1-0.3,0.3-0.5v-0.4l0,0c0,0,0-0.3,0.2-0.4c0,0-0.4-0.2,0-1.8l-0.4-0.2c0,0-0.1,0.8-0.4,1.1
		c0,0-0.2,0.6-0.5,0.9c0,0-0.1,1.3-0.7,1.7c0,0-0.4,1-1,1.2s-0.6,0.4-0.6,0.4l0.1,0.2c0,0,0.2,0.2-0.1,0.3V232.8z"/>
	<path fill="#FFFFFF" d="M27.1,224.3c0,0-0.3,2.5-0.7,4.3c-0.5,1.9-1.2,5.8-1.2,6.8s0.2,1.3,0.2,1.3l0.2,0.1v0.6
		c0,0,0.6,1.1,0.7,1.4c0.1,0.3,0-2.1,0-2.1s0.3-1.4,0.2-2c-0.1-0.6,0-0.9,0.3-1.5c0.3-0.6,0.5-2,0.7-4c0.2-2-0.1-4.1-0.1-4.2
		C27.3,224.8,27.1,224.3,27.1,224.3z"/>
	<path fill="#FFFFFF" d="M31.6,250.8c0,0.8-0.4,1.4-1.2,2.9c-0.7,1.4-1.2,3.3-1.7,4.8c1.3,0.8,2.6,1.7,3.9,2.5c0-0.1,0-0.2,0-0.3
		c-0.3-1.3-0.9-5-0.8-6.6c0.2-1.5,0.6-2.9,0.6-3.3c-0.1-0.4,0.3-3,0.3-3S31.6,250,31.6,250.8z"/>
	<path fill="#FFFFFF" d="M102.8,157.6l-47.2-8.9c-0.1,0-0.1,0-0.2,0h-7.3c-0.1,0-0.1,0-0.2,0l-47.1,8.9c-0.5,0.1-0.8,0.5-0.8,0.9
		v86.6c0,0.2,0.1,0.4,0.2,0.6c16.7,21.9,34.8,26.7,50.2,37.3c0.2,0.1,0.3,0.2,0.5,0.2h1.7c0.2,0,0.4-0.1,0.5-0.2
		c15.2-10.5,35.1-17.8,50.2-37.3c0.1-0.2,0.2-0.4,0.2-0.6v-86.6C103.6,158.1,103.2,157.7,102.8,157.6z M97.7,236.7
		c0.1,4.7,0.1,7.4-1.8,10.1c-5.4,7.8-37.8,28.7-44.1,28.7c-5.5,0-38-19.7-44-28.7c-2.2-3.3-2.2-4.4-2.2-10.1
		c0-2.7,0.1-68.6,0.1-68.6c-0.1-5.9-0.1-5.9,6.3-7.5c3.9-1,21.1-6.1,40.6-6.1c17,0,36.3,5.3,39.7,6.3c5.4,1.4,5.4,1.4,5.4,7.6
		C97.8,168.3,97.6,231,97.7,236.7z"/>
	<path fill="#FFFFFF" d="M71.3,253.2c-0.4,2.2-0.8,4.3-1.1,6.6c0,0.3,0,1,0,1.3c2.8-1.5,5.2-3.1,7.9-4.9c0-0.1-0.3-2.5-0.5-3.1
		C75.4,253.1,73.4,253.2,71.3,253.2z"/>
	<path fill="#FFFFFF" d="M93.8,171.8c0-4.4-1.2-6.3-5.4-7.6c-3.4-1-18.7-5.2-35.7-5.2c-19.6,0-32.7,3.9-36.6,5
		c-4.1,1.2-6.3,3.1-6.3,7.5c0,0.9-0.1,52,0,56.3c0.1,3.8,0.1,9.5,1.3,12.7c0-0.2,0-2.4,0.1-2.6c0-0.8-0.1-1.9,0.1-2.7
		c0.7-2.2,1-4.4,1.8-6.7c0.5-1.2,0.9-2.4,1.4-3.5c0.2-0.4,0.6-0.8,0.6-1.2c0-0.3-1.4-1.2-1.7-1.4c-0.2-0.1-1-0.8-1-0.8
		c-0.1-0.2-0.7-1.1-0.7-1c0-0.2,0-0.3,0-0.5c-0.1,0.1,0,0.1-0.1,0.2c0-0.1,0-0.4-0.1-0.5c-0.1-0.1-0.1-0.2-0.1,0
		c-0.3-0.7-0.6-1.5-0.3-2.2c0.1-0.3-0.4-0.5-0.1-0.7c0.3-0.1,0.2-0.7,0.4-1c0.1-0.1,0.6,0.3,0.5,0c0-0.3-0.2-0.8,0.3-0.7
		c0.5,0.1,1-0.5,1.5-0.5c0.4,0,3.2-0.6,3.3-0.1c0-0.1,1.7,0.7,1.2,0.9c-0.5,0.2,0.9,1.1,1,1.4s0.7,1.1,0.9,1.1
		c-0.8,0.6,1.4,0.9,0.9,1.8c-0.2,0.3,0.5,1.6,0.4,2.1c-0.2,0.8-2.2,0.8-2.1,1.4c0,0.2,1.1,0.9,1.2,1c0.2,0.1,0.5,1.1,0.3,1.3
		c-0.3,0.4-0.2-0.1-0.2,0.7c0,0.3,0.1,0.5,0.2,0.8c0.3,0.7,0.5,1.3,0.7,2c0.3,1.6,0.8,3.4,0.7,5.1c-0.1,1.9-0.2,3.9-0.1,5.8
		c0.1,1.3,0.7,3.1,0.5,4.4c0,0.1-0.2-0.4-0.3-0.4c-0.2,0.1,0,0.3-0.3,0.5c-0.4,0.2-0.1,0.1-0.3,0.4c-0.3,0.4-1.1,0.4-1.4,0.7
		c-0.1,0,0.9,1.1,0.7,1.5c-0.2,0.5,0.2,0.9,0.1,1.4c-0.1,0.3-1,0.5-1.3,0.5c-0.2,0-1-0.3-1.1-0.3c-0.1,0-0.2,0.7-0.2,1.5
		c1.8,1.9,3.9,3.7,6.2,5.3c0.3-1.4,0.8-2.8,1.4-3.4c0.9-0.9,0.9-2.1,1-2.5c0.1-0.5-0.4-6.4-0.4-6.4l-0.7-0.2v-0.5
		c0,0-2.9-1.3-2.8-2.4c0-1.1-0.1-7,0.1-8.8c0.1-1.8,0.3-5,0.6-5.9c0.2-0.9,0.4-4.3,0.4-4.8c0-0.5-0.1-1.5-0.1-1.5l-1.1-0.2
		c0,0,0.9-1.7,1.2-2.6c0.3-1,1.6-2.1,1.8-2.4c0.2-0.2,2.8-1,3-1.4c0.2-0.3,0-1.1,0-1.1s-1.4-0.1-1.4,0.6c0,0.7-1.1,0.6-0.2-0.8
		c0.8-1.4,1-1.7,1-2.3s0.3-3,0.4-3.9c0-0.9,0.4-2.3,2.2-2.8c1.8-0.5,3.2,0.3,3.9,1.3c0.7,1,1,2.3,1.3,3.3c0.3,1.1,1.1,1.5,1.4,1.2
		c0.3-0.3,0.4-0.6,0.2-0.6c-0.2,0-0.6-0.2-0.6-0.2s1.8,0,1.6,0.9c-0.2,0.9-0.6,0.6-0.6,0.6s1.1,0.9,0.9,1.5
		c-0.3-0.2-0.7-0.3-0.9-0.2c-0.2,0.1-0.5,0.2-0.8-0.1c-0.3-0.3-0.7,0-0.5,0.1c0.3,0.1,1.3,0.1,1.2,1.1c-0.1,1-0.5,0.5-0.5,0.4
		c0.1-0.1,0.8-0.1,0-0.6c-0.8-0.5-1.5-0.3-1.5-0.3s0.5,0.5,0.7,0.5c0.2,0,0.3,0.1,0.3,0.1s-0.3,0.5-0.7,0.1
		c-0.3-0.3-0.8-0.7-0.8-0.7s0.3,0.5,0.5,1.4c0.2,0.9-0.4,1.5-0.4,1.5s1.8,0.7,2.2,0.8s1.8,3.2,1.7,3.8s-0.7,0.5-0.9,0.5
		c-0.2,0,1.2,0.9,0.7,2.3c-0.5,1.4-0.8,1.1-0.8,1.9c0,0.9,0.2,2.4,0.5,3.7s0.6,2.6,0.9,5.5c0.3,2.8,0.7,3.9,1.2,5.3
		c0.5,1.4,0.6,2.6,0.2,3.4c-0.4,0.9-1.7,0.8-1.7,0.8c-0.1,0-0.6,0-0.6,0l-0.4-0.3L39,242l-0.4,0.3c0,0-0.8,2.5-1.3,4.3
		c-0.5,1.8-0.8,1.7-0.9,2.5c-0.1,0.9-0.3,2.2-0.3,2.2s0.5,3-0.1,6.1c-0.4,2.2-0.5,4.1-0.5,5.2l5,3.1c0,0,0.1,0,0.1,0.1l0.2-0.3v-0.2
		c0,0,0.1-0.3,0.2-0.5l0,0c0.1-0.1-0.1-0.2-0.1-0.2h-0.4l-0.6-1.3l0.6-0.4c0.4-0.3,0.6-0.3,0.6-0.3l0.7-0.9
		c-0.1-0.2-0.4-0.7-0.1-1.5c0.2-0.8,0.5-1.2,0.5-1.2c-0.1-0.1-0.1-0.4-0.1-0.4c0-0.6,0.3-2.7,0.3-2.7c0.1-0.4,0.3-2,0.3-2
		c0.3-0.6,0.3-1.3,0.3-1.3c-0.1-1.5,0.6-3.2,0.6-3.2c0.2-0.6,0.3-1.5,0.3-1.5c0-0.9,0.4-1.6,0.4-1.6c0.5-0.7,0.4-1.7,0.4-1.7
		c0-0.7,0.5-2.1,0.5-2.1c0.2-0.4,0.2-0.8,0.2-0.8c-0.1-0.6,0.2-2.3,0.2-2.3c0-0.9,0.4-1.8,0.4-1.8c-0.1-1,0.3-1.6,0.3-1.6
		c-0.1-0.4,0.2-1.2,0.2-1.2c0-0.1,0.1-0.9,0.1-0.9l-1.8,2.4c-0.6,1-0.8,0.7-0.8,0.7c0,0.2-0.2,0.3-0.2,0.3c-0.3,0.4-0.5,0-0.5,0
		c-0.3-0.1-0.7-0.5-0.7-0.5c-0.1-0.2-0.5-0.4-0.5-0.4c-0.3-0.1-0.3-0.4-0.3-0.4c0.1-0.4,0.1-1.3,0.1-1.3c-0.2-0.1-0.3-0.3-0.3-0.3
		c-0.2-0.6-0.4-2.5-0.4-2.5c0.2-0.2,0.2-0.9,0.2-0.9c0.4-1.3,0.9-2.1,0.9-2.1c0.3-0.1,0.2-0.4,0.2-0.4c-0.6-0.5-0.7-1-0.7-1
		c-0.2-0.8,0.5-3.9,0.6-4.6c0.2-0.7,0.5-2.9,0.7-4c0.2-1.1,1.5-5.9,1.5-5.9c0.5-2.1,0.9-2.5,1.5-3.4c0.6-0.9,2.6-1.4,3.1-1.5
		c0.5-0.1,2.7-0.8,2.7-0.8l0.4-0.7c0.2-0.4,0.5-0.5,0.5-0.5c0.1-0.5,0-1.5,0-1.5h-0.3c-0.4-0.1-0.2-0.6-0.2-0.6
		c0.3,0.1,0.2-0.2,0.2-0.2c-0.2,0.1-0.4-0.2-0.4-0.2s0-0.2-0.2-0.5c-0.2-0.4-0.3-0.8-0.3-0.8c-0.3-0.6,0.2-1.1,0.2-1.1
		c-1.1-0.6,0.1-1.7,0.1-1.7c0-0.6,0.2-0.7,0.2-0.7s-0.1-0.7,0.1-1s0.2-0.5,0.2-0.5c-0.2-0.1,0-0.2,0-0.2l0.2-0.1
		c0-0.1,0.3-0.1,0.3-0.1c0-0.3,0.4-0.3,0.4-0.3c0-0.3,0.3-0.3,0.3-0.3c0.5-0.8,1.2-0.6,1.2-0.6c0.1-0.2,0.5-0.3,0.5-0.3
		c0.2-0.2,0.5-0.1,0.5-0.1c0.3-0.7,0.8-0.3,0.8-0.3c0.5-0.2,0.6,0.2,0.6,0.2c0.4,0,0.6,0.3,0.6,0.3c0.7,0,1,0.6,1,0.6
		c0.5-0.1,0.3,0.5,0.3,0.5s0.4,0.3,0.4,0.5s-0.2,0.4-0.2,0.4s0.4,0.3,0.4,0.4c0,0.1-0.2,0.2-0.2,0.2c0.5,0,0.2,0.4,0.2,0.4
		c0.3,0.1,0.1,0.6,0.1,0.6l0.2,0.1c0.1,0.1-0.1,0.3-0.1,0.3s0.2,0.1,0,0.3c-0.2,0.2-0.1,0.6-0.1,0.6c-0.1,0-0.1,0.3-0.1,0.3
		c0.2-0.1,0.3,0.1,0.3,0.1c0.1,0.2-0.1,0.5-0.1,0.5c0.2,0.3-0.2,0.4-0.2,0.4c0.4,0.5-0.1,1.2-0.1,1.2c-0.2,0.2-0.4,0.5-0.4,0.5
		c-0.1,0.3-0.4,0.4-0.4,0.4s0,0.1-0.1,0.4c-0.2,0.2-0.4,0.7-0.4,0.7c0.2,0.3-0.1,0.4-0.1,0.4c-0.1,0.1-0.4,0-0.4,0l0.1,0.2
		c0,0.1-0.3,0.1-0.3,0.1l-0.1,0.4c-0.2,0.2-0.1,0.7-0.1,0.7c0.1,0,0.2,0.2,0.2,0.2l0.3,1.3c0.4,0.2,0.7,0.5,0.7,0.5l0.8,0.5
		c0.5,0.3,2.5,1.7,2.5,1.7c0.9,0.5,1.4,1.7,1.4,1.7c0.3,0.5,0.9,2.7,1,3.3c0.2,0.5,0.9,5.1,1,5.7c0.1,0.6,0.9,5.9,0.9,6.5
		c0,0.5-0.5,2.2-0.5,2.2s0.5,0.5,0.5,1.3s-0.5,1.8-0.5,1.8c0,0.7-0.3,1.1-0.3,1.1c0.1,0.2-0.1,0.7-0.1,0.7l-0.1,2.1
		c0,0.2-0.3,0.1-0.3,0.1v0.1c0.3,0.4-0.1,1-0.1,1c0.2,0.4,0,0.8,0,0.8c-0.2,0.5-0.5,0.5-0.5,0.5c0,0.2,0,0.1-0.1,0.3l0,0
		c-0.1,0.2-0.4,0.3-0.4,0.3c-0.4,0.5-0.9,0.3-0.9,0.3c-0.1,0.1-0.3,0.1-0.3,0.1c-0.3,0.7-0.6,0.4-0.6,0.4c-0.2-0.4,0.3-0.8,0.3-0.8
		c0.1-0.2,0.4-0.6,0.4-0.6c-0.1-0.3,0.2-0.9,0.2-0.9c0-0.1,0-0.4,0-0.4c0-0.4-0.2-0.7-0.2-0.7c-0.2-0.2-0.2,0-0.2,0
		c0.1,0.4-0.2,0.9-0.2,0.9c0.1,0.5-0.2,1.1-0.4,1.2s-0.3,0-0.3,0l-0.2,1.7c0,0,0.4,1.6-0.1,3.2c-0.4,1.6-0.2,3.6-0.2,3.6
		c0.5,1.8-0.5,3.7-0.5,3.7c0.5,1.6-0.9,5.1-0.9,5.1c0.1,0.5-0.3,2.7-0.3,2.7c0.1,1.4,0,2-0.3,3.1c-0.3,1-0.7,0.9-0.7,0.9
		c1.4,0.8,0.1,2.1,0.1,2.1c0.2,0.3,0.5,1.1,1,1.7c1.8-0.8,7.7-4.3,7.8-4.7c-0.1-2.9,0-6.9,0-9.7c-0.8,0-1.6,0-2.4-0.1
		c0.2-1.3,0.3-2.6,0.5-3.9c0.1-1,0.1-2,0.2-3c0.4-2.4,0.2-4.8,0.6-7.3c0.3-3.4,0.6-6.9,1-10.3c0.4-3.9,0.7-7.9,1.1-11.8
		c0.1-1.6,0.2-3.3,0.3-4.9c0.4-1.4,0.8-2.7,1.2-4.1c-0.1-0.2-0.1-0.4-0.2-0.7c-0.2-0.8-0.4-1.7-0.2-2.6c0.3-0.8,0.9-1.6,1.3-2.3
		c0.4-0.7,1-2.6,1.2-3.4c-0.1-0.3-0.1-0.6-0.2-1c-0.3-1.4-0.6-2.6-0.6-4.1c-1.5,0.5-2.9,0.9-4.4,1.4c2.2-1.9,4.4-3.9,6.7-5.8
		c2.5-0.1,5-0.3,7.6-0.4l0,0c-0.8,0.6-1.6,1.1-2.4,1.7c0,0,0,0-0.1,0c0.8,1,1.5,1.1,1.9,2.5c0.2,0.7-0.4,1.4-0.1,2.1
		c0.3,0.6,1,0.8,1.1,1.3c0,0.1,0,0.3-0.1,0.5c-0.2,0-0.4,0-0.6,0.1c-0.1,0.4,0.1,0.6,0.1,0.9c-0.1,0.1-0.2,0.2-0.2,0.3
		c0.1,0.1,0.1,0.2,0.2,0.2c-0.1,0.1-0.2,0.1-0.2,0.2c-0.2,0.3-0.2,0.6-0.2,1c-0.5,0.5-1.1,0.5-2.1,0.5c-0.2,0.3-0.4,0.6-0.6,0.9
		c0.2,0.8,0.9,1.1,1.3,1.7c0.2,0.6,0.5,1.2,0.7,1.8c0.2,0.7,0.3,1.4,0.5,2.1c0.4,1.3,0.8,2.7,1.2,4c0.2,0.7,0.4,1.3,0.6,2
		c0.2,0.4,2.4,1.8,2.8,1.9c1.2,0.1,2.4,0.2,3.6,0.3c0.7-0.6,1.1-1.1,2.5-1.1c0.2-1.4,0.6-3.7,1.3-4.6c0.2,0,0.4,0.1,0.5,0.1
		c0.1,0.1,0.2,0.3,0.2,0.4c-0.3,1.4-0.7,2.7-1,4.1c0.1,0.1,0.3,0.2,0.4,0.3c0,0.6-0.2,1,0,1.4c-0.2,0.3-0.4,0.6-0.7,0.7
		c0.1,0.2,0.2,0.3,0.2,0.6c-0.3,0.4-0.5,0.6-1.1,0.7c-0.3,1.2-0.6,2.4-0.9,3.5c-0.2,0.2-0.3,0.3-0.5,0.5c-0.2,0-0.4-0.1-0.6-0.1
		c-0.6-0.4,0.5-2.9,0.6-3.7c-0.1-0.2-0.2-0.3-0.3-0.5c-0.1-0.1-0.2-0.1-0.4-0.1c-0.8,0.6-1.5,2.1-2,3c-1,1.6-2,2.9-3.4,3.9
		c0.3,3,0.6,6.1,0.9,9.1c0.1,1.7,0.2,3.5,0.2,5.2c-0.1,1.7-0.2,3.4-0.3,5.1c0,1.1-0.1,2.2-0.1,3.4c0,1.3,0,3.7-0.1,5
		c0.1-0.1,2-1.4,2.1-1.5c5.3-3.9,7.7-8.5,8-15.4C94,233.4,93.8,181.4,93.8,171.8z"/>
</g>
</svg>
